# xmcd
#
# Track frame offsets: 
#        150
#        16603
#        30924
#        33674
#        51604
#        67557
#
# Disc length: 1085 seconds
#
# Revision: 0
# Processed by: cddbd v1.5.2PL0 Copyright (c) Steve Scherf et al.
# Submitted via: ExactAudioCopy v1.0b3
#
DISCID=3d043b06
DTITLE=Nerina Pallot - Lonely Valentine Club EP
DYEAR=2012
DGENRE=Pop
TTITLE0=Once
TTITLE1=Finally
TTITLE2=Telegram
TTITLE3=Grey Love
TTITLE4=Love Is An Unmade Bed
TTITLE5=Not Over you
EXTD=
EXTT0=
EXTT1=
EXTT2=
EXTT3=
EXTT4=
EXTT5=
PLAYORDER=
